<svg width="28" height="30" viewBox="0 0 28 30" fill="none" xmlns="http://www.w3.org/2000/svg">
<path d="M24.5002 7.50001H18.6668V5.41251C18.6395 4.61229 18.3171 3.85634 17.7703 3.31038C17.2236 2.76442 16.4971 2.47301 15.7502 2.50001H12.2502C11.5032 2.47301 10.7767 2.76442 10.23 3.31038C9.68326 3.85634 9.36087 4.61229 9.3335 5.41251V7.50001H3.50016C3.19074 7.50001 2.894 7.63171 2.6752 7.86613C2.45641 8.10055 2.3335 8.41849 2.3335 8.75001C2.3335 9.08153 2.45641 9.39948 2.6752 9.6339C2.894 9.86832 3.19074 10 3.50016 10H4.66683V23.75C4.66683 24.7446 5.03558 25.6984 5.69196 26.4017C6.34833 27.1049 7.23857 27.5 8.16683 27.5H19.8335C20.7618 27.5 21.652 27.1049 22.3084 26.4017C22.9647 25.6984 23.3335 24.7446 23.3335 23.75V10H24.5002C24.8096 10 25.1063 9.86832 25.3251 9.6339C25.5439 9.39948 25.6668 9.08153 25.6668 8.75001C25.6668 8.41849 25.5439 8.10055 25.3251 7.86613C25.1063 7.63171 24.8096 7.50001 24.5002 7.50001ZM11.6668 5.41251C11.6668 5.21251 11.9118 5.00001 12.2502 5.00001H15.7502C16.0885 5.00001 16.3335 5.21251 16.3335 5.41251V7.50001H11.6668V5.41251Z" fill="#231F20"/>
</svg>
