<svg width="23" height="21" viewBox="0 0 23 21" fill="none" xmlns="http://www.w3.org/2000/svg">
<path d="M16.1172 3.36515C18.1066 3.36515 19.7064 4.82076 19.7064 6.61014C19.7064 8.36244 18.1681 9.79024 16.2505 9.85514C16.1619 9.84586 16.0724 9.84586 15.9839 9.85514M18.0964 18.1994C18.8347 18.0603 19.532 17.7915 20.1063 17.3928C21.706 16.308 21.706 14.5187 20.1063 13.4339C19.5423 13.0445 18.8552 12.7849 18.1271 12.6366M8.68247 9.73461C8.57993 9.72534 8.45687 9.72534 8.34407 9.73461C7.16703 9.69848 6.05176 9.24956 5.23444 8.48293C4.41712 7.7163 3.96194 6.69215 3.96528 5.62737C3.96528 3.35587 5.99572 1.51086 8.5184 1.51086C9.7246 1.49119 10.89 1.90554 11.7583 2.66276C12.6266 3.41997 13.1267 4.45803 13.1484 5.54856C13.1702 6.6391 12.7119 7.69279 11.8744 8.47782C11.0368 9.26286 9.88867 9.71494 8.68247 9.73461ZM3.55509 13.1558C1.07343 14.6577 1.07343 17.1054 3.55509 18.5981C6.37515 20.304 11.0001 20.304 13.8201 18.5981C16.3018 17.0961 16.3018 14.6485 13.8201 13.1558C11.0103 11.4591 6.3854 11.4591 3.55509 13.1558V13.1558Z" stroke="#333232" stroke-width="1.5" stroke-linecap="round" stroke-linejoin="round"/>
</svg>
