<svg width="31" height="30" viewBox="0 0 31 30" fill="none" xmlns="http://www.w3.org/2000/svg">
<path d="M10.3334 7.5V6.5C10.3334 4.2875 10.3334 2.5 14.4667 2.5H16.5334C20.6667 2.5 20.6667 4.2875 20.6667 6.5V7.5M10.3334 27.5H20.6667C25.8592 27.5 26.7892 25.4875 27.0605 23.0375L28.0292 13.0375C28.378 9.9875 27.4738 7.5 21.9584 7.5H9.04173C3.52631 7.5 2.62214 9.9875 2.97089 13.0375L3.93964 23.0375C4.21089 25.4875 5.14089 27.5 10.3334 27.5Z" stroke="#333232" stroke-width="1.5" stroke-miterlimit="10" stroke-linecap="round" stroke-linejoin="round"/>
<path d="M27.9647 13.75C25.0534 15.7961 21.6539 17.0948 18.0834 17.525M3.38428 14.0875C6.29053 16.0125 9.57136 17.175 12.9168 17.5375M18.0834 16.25V17.525C18.0834 18.8875 18.0705 20 15.5001 20C12.9426 20 12.9168 18.9 12.9168 17.5375V16.25C12.9168 15 12.9168 15 14.2084 15H16.7918C18.0834 15 18.0834 15 18.0834 16.25Z" stroke="#333232" stroke-width="1.5" stroke-miterlimit="10" stroke-linecap="round" stroke-linejoin="round"/>
</svg>
