<svg width="35" height="37" viewBox="0 0 35 37" fill="none" xmlns="http://www.w3.org/2000/svg">
<path d="M26.4274 29.3924L26.0641 23.6318L28.2834 18.836C30.4993 14.0477 28.4065 8.34944 23.6183 6.13358C18.83 3.91772 13.1317 6.01051 10.9159 10.7988L8.6965 15.5946L4.06999 19.046C3.86019 19.2025 3.69464 19.4108 3.58958 19.6505C3.48451 19.8902 3.44352 20.1531 3.47062 20.4134C3.49773 20.6738 3.592 20.9226 3.7442 21.1355C3.8964 21.3485 4.10131 21.5182 4.33885 21.6281L9.30546 23.9265C9.22217 24.0708 9.14437 24.2196 9.07299 24.3739C8.45595 25.7072 8.39385 27.2311 8.90037 28.6103C9.40689 29.9894 10.4405 31.1108 11.7739 31.7279C13.1073 32.3449 14.6311 32.407 16.0103 31.9005C17.3894 31.394 18.5109 30.3604 19.1279 29.027C19.1993 28.8727 19.2623 28.7171 19.3184 28.5602L24.2851 30.8586C24.5226 30.9685 24.7846 31.0148 25.0454 30.993C25.3062 30.9712 25.5568 30.882 25.7728 30.7342C25.9888 30.5863 26.1626 30.385 26.2773 30.1497C26.3921 29.9145 26.4437 29.6535 26.4272 29.3923L26.4274 29.3924ZM17.2998 28.181C17.0967 28.6208 16.8051 29.0141 16.4433 29.3362C16.0814 29.6583 15.657 29.9024 15.1967 30.0532C14.7363 30.204 14.2497 30.2583 13.7674 30.2127C13.2851 30.1671 12.8174 30.0225 12.3934 29.7881C11.9695 29.5537 11.5984 29.2344 11.3033 28.8502C11.0083 28.4659 10.7956 28.025 10.6785 27.5549C10.5614 27.0848 10.5425 26.5956 10.6229 26.1179C10.7034 25.6401 10.8814 25.1841 11.1459 24.7782L17.4781 27.7086C17.43 27.8701 17.3704 28.028 17.2998 28.181ZM5.95218 20.1551L10.3103 16.9039L12.744 11.6448C13.5854 9.82656 15.1147 8.41706 16.9953 7.72636C18.876 7.03565 20.954 7.12033 22.7722 7.96175C24.5905 8.80317 26 10.3324 26.6907 12.2131C27.3814 14.0937 27.2967 16.1717 26.4553 17.99L24.0215 23.2491L24.3638 28.6754L5.95218 20.1551Z" fill="#5E5BFF"/>
</svg>
