<svg width="28" height="25" viewBox="0 0 28 25" fill="none" xmlns="http://www.w3.org/2000/svg">
<path d="M1.35474 14.2072V12.0512C1.35474 10.7772 2.41405 9.72371 3.72261 9.72371C5.97833 9.72371 6.90056 8.15573 5.76647 6.23251C5.11842 5.13002 5.50475 3.69679 6.63884 3.0598L8.79486 1.84707C9.7794 1.27132 11.0506 1.61432 11.6363 2.58206L11.7734 2.8148C12.895 4.73803 14.7395 4.73803 15.8736 2.8148L16.0107 2.58206C16.5964 1.61432 17.8676 1.27132 18.8521 1.84707L21.0081 3.0598C22.1422 3.69679 22.5286 5.13002 21.8805 6.23251C20.7464 8.15573 21.6686 9.72371 23.9244 9.72371C25.2205 9.72371 26.2922 10.7649 26.2922 12.0512V14.2072C26.2922 15.4811 25.2329 16.5346 23.9244 16.5346C21.6686 16.5346 20.7464 18.1026 21.8805 20.0258C22.5286 21.1406 22.1422 22.5615 21.0081 23.1985L18.8521 24.4113C17.8676 24.987 16.5964 24.644 16.0107 23.6763L15.8736 23.4435C14.7519 21.5203 12.9075 21.5203 11.7734 23.4435L11.6363 23.6763C11.0506 24.644 9.7794 24.987 8.79486 24.4113L6.63884 23.1985C6.0956 22.8911 5.69865 22.3843 5.5351 21.7895C5.37154 21.1947 5.45475 20.5604 5.76647 20.0258C6.90056 18.1026 5.97833 16.5346 3.72261 16.5346C2.41405 16.5346 1.35474 15.4811 1.35474 14.2072V14.2072Z" stroke="#333232" stroke-width="1.5" stroke-miterlimit="10" stroke-linecap="round" stroke-linejoin="round"/>
</svg>
