<svg width="24" height="24" viewBox="0 0 24 24" fill="none" xmlns="http://www.w3.org/2000/svg">
<path d="M19.9292 16.4005C19.3057 16.4006 18.6905 16.5346 18.1313 16.7921C17.5721 17.0496 17.0839 17.4238 16.7044 17.8856L7.92424 13.2336C8.21926 12.4345 8.21926 11.5662 7.92424 10.767L16.7044 6.11502C17.3172 6.85732 18.2025 7.3618 19.1899 7.53139C20.1772 7.70098 21.1969 7.5237 22.0526 7.03365C22.9084 6.54361 23.5398 5.77543 23.8253 4.87693C24.1108 3.97844 24.0303 3.01311 23.5992 2.1667C23.1682 1.32028 22.417 0.652598 21.4903 0.292115C20.5636 -0.068367 19.5269 -0.0961747 18.5795 0.214043C17.6322 0.524261 16.8412 1.15059 16.3588 1.9725C15.8764 2.79441 15.7367 3.75383 15.9665 4.66615L7.03676 9.39748C6.47798 8.84256 5.75348 8.45718 4.95722 8.29132C4.16097 8.12547 3.3297 8.18679 2.57123 8.46734C1.81277 8.74789 1.1621 9.23472 0.703617 9.86469C0.245137 10.4947 0 11.2387 0 12.0003C0 12.7619 0.245137 13.506 0.703617 14.1359C1.1621 14.7659 1.81277 15.2527 2.57123 15.5333C3.3297 15.8138 4.16097 15.8751 4.95722 15.7093C5.75348 15.5434 6.47798 15.1581 7.03676 14.6031L15.9665 19.3345C15.774 20.1025 15.8423 20.9075 16.1619 21.6376C16.4815 22.3678 17.0366 22.987 17.7502 23.4093C18.4638 23.8317 19.3005 24.0363 20.1443 23.9947C20.988 23.9531 21.797 23.6675 22.459 23.1773C23.121 22.6872 23.6032 22.0169 23.8387 21.2594C24.0742 20.5019 24.0513 19.6947 23.7733 18.9499C23.4953 18.205 22.9758 17.5594 22.287 17.1026C21.5982 16.6458 20.7742 16.4004 19.9292 16.4005ZM19.9292 1.5998C20.3954 1.5998 20.851 1.72883 21.2386 1.97058C21.6261 2.21233 21.9282 2.55594 22.1066 2.95796C22.285 3.35998 22.3316 3.80235 22.2407 4.22913C22.1498 4.6559 21.9253 5.04793 21.5957 5.35562C21.2661 5.66331 20.8462 5.87285 20.389 5.95774C19.9319 6.04263 19.458 5.99906 19.0274 5.83254C18.5967 5.66602 18.2286 5.38403 17.9697 5.02222C17.7107 4.66041 17.5725 4.23505 17.5725 3.79991C17.5732 3.2166 17.8217 2.65737 18.2635 2.24491C18.7054 1.83245 19.3044 1.60045 19.9292 1.5998ZM4.07476 14.2004C3.60864 14.2004 3.15298 14.0714 2.76542 13.8296C2.37785 13.5879 2.07578 13.2443 1.89741 12.8423C1.71903 12.4402 1.67236 11.9979 1.7633 11.5711C1.85423 11.1443 2.07869 10.7523 2.40829 10.4446C2.73788 10.1369 3.15781 9.92737 3.61498 9.84247C4.07214 9.75758 4.54601 9.80115 4.97665 9.96767C5.40729 10.1342 5.77536 10.4162 6.03432 10.778C6.29328 11.1398 6.43151 11.5652 6.43151 12.0003C6.43081 12.5836 6.18229 13.1428 5.74046 13.5553C5.29864 13.9678 4.69959 14.1998 4.07476 14.2004ZM19.9292 22.4008C19.4631 22.4008 19.0075 22.2718 18.6199 22.03C18.2323 21.7883 17.9303 21.4447 17.7519 21.0427C17.5735 20.6406 17.5268 20.1983 17.6178 19.7715C17.7087 19.3447 17.9332 18.9527 18.2628 18.645C18.5924 18.3373 19.0123 18.1278 19.4695 18.0429C19.9266 17.958 20.4005 18.0016 20.8311 18.1681C21.2618 18.3346 21.6298 18.6166 21.8888 18.9784C22.1478 19.3402 22.286 19.7656 22.286 20.2007C22.2853 20.784 22.0368 21.3432 21.5949 21.7557C21.1531 22.1682 20.5541 22.4002 19.9292 22.4008Z" fill="black"/>
</svg>
