<?xml version="1.0" standalone="no"?>
<!DOCTYPE svg PUBLIC "-//W3C//DTD SVG 20010904//EN"
 "http://www.w3.org/TR/2001/REC-SVG-20010904/DTD/svg10.dtd">
<svg version="1.0" xmlns="http://www.w3.org/2000/svg"
 width="3000.000000pt" height="3000.000000pt" viewBox="0 0 3000.000000 3000.000000"
 preserveAspectRatio="xMidYMid meet">

<g transform="translate(0.000000,3000.000000) scale(0.100000,-0.100000)"
fill="#000000" stroke="none">
<path d="M14380 23672 c0 -5 -77 -12 -172 -16 -95 -4 -177 -11 -183 -15 -5 -5
-59 -12 -120 -16 -60 -3 -114 -10 -120 -15 -5 -4 -52 -11 -102 -15 -51 -4 -93
-11 -93 -15 0 -4 -36 -11 -80 -14 -44 -4 -82 -11 -85 -15 -2 -5 -35 -12 -72
-16 -38 -4 -72 -10 -78 -15 -5 -4 -36 -11 -67 -14 -32 -4 -60 -11 -63 -16 -2
-4 -29 -11 -60 -15 -30 -3 -57 -10 -60 -15 -2 -4 -34 -11 -70 -15 -36 -3 -67
-10 -70 -15 -3 -5 -30 -12 -60 -15 -31 -4 -58 -11 -60 -15 -3 -5 -31 -12 -63
-16 -31 -3 -61 -10 -67 -14 -5 -4 -34 -11 -62 -15 -29 -4 -55 -10 -58 -15 -3
-4 -29 -11 -60 -15 -30 -3 -57 -10 -60 -15 -3 -5 -27 -12 -53 -16 -26 -3 -51
-10 -57 -14 -5 -5 -28 -11 -50 -15 -22 -4 -44 -11 -50 -15 -5 -5 -27 -11 -48
-15 -20 -4 -39 -11 -42 -15 -3 -5 -23 -11 -45 -15 -22 -4 -42 -10 -45 -15 -3
-5 -23 -11 -45 -15 -22 -4 -42 -10 -45 -15 -3 -5 -23 -11 -45 -15 -22 -4 -42
-11 -46 -16 -3 -5 -13 -9 -22 -9 -9 0 -29 -6 -43 -14 -14 -7 -39 -16 -55 -20
-16 -4 -42 -13 -59 -21 -59 -27 -103 -45 -111 -45 -8 0 -50 -19 -179 -81 -33
-16 -64 -29 -69 -29 -12 0 -339 -163 -346 -172 -3 -3 -18 -10 -33 -13 -15 -4
-27 -11 -27 -15 0 -4 -12 -11 -27 -15 -15 -3 -30 -10 -33 -13 -7 -10 -36 -27
-105 -62 -63 -32 -97 -51 -105 -61 -3 -3 -12 -9 -20 -12 -8 -4 -33 -18 -55
-32 -22 -13 -48 -27 -57 -31 -10 -3 -18 -10 -18 -14 0 -4 -8 -11 -17 -14 -25
-9 -64 -32 -72 -43 -8 -10 -39 -30 -68 -43 -13 -5 -23 -14 -23 -19 0 -5 -8
-12 -17 -15 -25 -9 -64 -32 -72 -43 -8 -10 -39 -30 -68 -43 -13 -5 -23 -14
-23 -20 0 -5 -6 -10 -13 -10 -8 0 -22 -9 -32 -20 -10 -11 -22 -20 -27 -20 -5
0 -14 -4 -21 -10 -7 -5 -32 -26 -57 -45 -25 -19 -50 -40 -57 -45 -7 -6 -16
-10 -21 -10 -5 0 -17 -9 -27 -20 -10 -11 -24 -20 -32 -20 -7 0 -13 -5 -13 -10
0 -6 -8 -13 -17 -17 -17 -6 -67 -44 -104 -78 -9 -8 -19 -15 -24 -15 -7 0 -58
-40 -96 -75 -9 -8 -20 -15 -25 -15 -6 0 -23 -13 -39 -30 -16 -16 -34 -30 -39
-30 -6 -1 -22 -14 -36 -30 -13 -17 -29 -30 -35 -30 -6 0 -31 -20 -55 -45 -24
-25 -48 -45 -52 -45 -5 0 -28 -20 -51 -45 -24 -25 -47 -45 -52 -45 -17 0 -515
-480 -515 -496 0 -5 -29 -39 -65 -74 -36 -35 -65 -68 -65 -72 0 -5 -20 -28
-45 -51 -25 -24 -45 -48 -45 -53 0 -6 -20 -30 -45 -54 -25 -24 -45 -49 -45
-55 -1 -5 -14 -21 -30 -35 -17 -13 -30 -29 -30 -35 0 -6 -13 -24 -30 -40 -16
-16 -30 -33 -30 -37 0 -5 -11 -19 -25 -32 -14 -13 -25 -28 -25 -33 0 -5 -9
-18 -20 -28 -11 -10 -20 -22 -20 -27 0 -5 -11 -19 -25 -32 -14 -13 -25 -28
-25 -33 0 -5 -9 -18 -20 -28 -11 -10 -20 -24 -20 -30 0 -7 -7 -15 -15 -19 -8
-3 -15 -11 -15 -17 0 -6 -14 -28 -30 -48 -48 -56 -50 -60 -50 -69 0 -5 -9 -17
-20 -27 -11 -10 -20 -24 -20 -30 0 -7 -7 -15 -15 -19 -8 -3 -15 -11 -15 -17 0
-6 -14 -28 -30 -48 -46 -54 -50 -60 -50 -66 0 -8 -44 -69 -52 -73 -5 -2 -8 -8
-8 -13 0 -11 -42 -72 -52 -77 -5 -2 -8 -8 -8 -13 0 -11 -40 -70 -55 -81 -5 -4
-6 -8 -1 -8 5 0 0 -10 -12 -22 -11 -13 -25 -34 -31 -48 -14 -33 -33 -63 -46
-72 -5 -4 -6 -8 -1 -8 5 0 0 -10 -12 -22 -11 -13 -25 -34 -31 -48 -14 -31 -33
-63 -44 -71 -5 -3 -8 -9 -8 -13 2 -14 -27 -72 -42 -85 -9 -7 -14 -17 -11 -22
3 -5 1 -9 -4 -9 -9 0 -25 -37 -23 -52 1 -5 -3 -8 -8 -8 -8 0 -24 -37 -22 -52
1 -5 -3 -8 -8 -8 -8 0 -24 -37 -22 -52 1 -5 -3 -8 -8 -8 -8 0 -24 -37 -22 -52
1 -5 -3 -8 -8 -8 -5 0 -12 -13 -16 -30 -4 -16 -10 -30 -15 -30 -5 0 -11 -13
-15 -30 -4 -16 -10 -30 -15 -30 -5 0 -11 -13 -15 -30 -4 -16 -10 -30 -15 -30
-7 0 -23 -38 -21 -52 0 -3 -13 -33 -29 -65 -16 -32 -30 -66 -30 -75 0 -10 -4
-18 -9 -18 -5 0 -12 -13 -16 -30 -4 -16 -11 -30 -16 -30 -5 0 -9 -10 -9 -23 0
-12 -6 -31 -14 -42 -7 -11 -17 -35 -21 -52 -3 -18 -10 -33 -15 -33 -4 0 -11
-20 -14 -45 -4 -25 -11 -45 -16 -45 -5 0 -12 -15 -15 -32 -4 -18 -11 -37 -15
-43 -4 -5 -11 -26 -15 -45 -4 -19 -11 -39 -15 -45 -4 -5 -11 -26 -15 -45 -4
-19 -11 -39 -15 -45 -4 -5 -11 -26 -15 -45 -4 -19 -11 -39 -15 -45 -4 -5 -11
-26 -15 -45 -4 -19 -11 -39 -15 -45 -4 -5 -11 -31 -14 -57 -4 -27 -11 -48 -15
-48 -5 0 -11 -22 -15 -50 -4 -27 -11 -52 -16 -55 -5 -3 -12 -30 -15 -60 -4
-31 -11 -57 -15 -60 -5 -3 -11 -29 -15 -58 -4 -28 -11 -56 -15 -62 -4 -5 -11
-38 -15 -72 -4 -35 -11 -63 -15 -63 -4 0 -11 -25 -15 -55 -3 -30 -10 -57 -15
-60 -5 -3 -12 -34 -15 -70 -4 -36 -11 -68 -15 -70 -5 -3 -12 -30 -15 -60 -4
-31 -11 -58 -15 -60 -5 -3 -12 -31 -16 -63 -3 -31 -10 -61 -14 -67 -5 -5 -11
-40 -15 -78 -4 -37 -11 -70 -16 -72 -4 -3 -11 -41 -15 -85 -3 -44 -10 -83 -14
-85 -5 -3 -11 -44 -15 -93 -4 -48 -11 -92 -15 -97 -5 -6 -12 -60 -15 -120 -4
-61 -11 -115 -16 -120 -4 -6 -11 -88 -15 -183 -4 -95 -11 -175 -15 -178 -5 -3
-9 -191 -9 -419 0 -228 4 -416 9 -419 4 -3 11 -83 15 -178 4 -95 11 -177 15
-183 5 -5 12 -59 16 -120 3 -60 10 -114 15 -120 4 -5 11 -52 15 -102 4 -51 11
-93 15 -93 4 0 11 -36 14 -80 4 -44 11 -82 16 -85 4 -3 11 -36 15 -75 4 -39
11 -72 15 -75 4 -3 11 -34 15 -70 3 -36 10 -65 15 -65 4 0 11 -27 15 -60 4
-33 10 -60 15 -60 4 0 11 -29 15 -65 3 -36 10 -67 15 -70 5 -3 12 -30 15 -60
4 -31 11 -58 15 -60 5 -3 12 -31 16 -63 3 -31 10 -61 14 -67 4 -5 11 -34 15
-62 4 -29 10 -55 15 -58 4 -3 11 -29 15 -60 3 -30 10 -57 15 -60 5 -3 12 -27
16 -53 3 -26 10 -51 14 -57 5 -5 11 -28 15 -50 4 -22 11 -44 15 -50 4 -5 11
-26 15 -45 4 -19 11 -39 15 -45 4 -5 11 -26 15 -45 4 -19 11 -39 15 -45 4 -5
11 -26 15 -45 4 -19 11 -39 15 -45 4 -5 11 -26 15 -45 4 -19 11 -39 15 -45 4
-5 11 -25 15 -42 3 -18 10 -33 15 -33 4 0 11 -20 14 -45 4 -25 11 -45 16 -45
5 0 11 -14 15 -31 4 -17 13 -42 21 -57 8 -15 14 -35 14 -44 0 -10 4 -18 9 -18
5 0 12 -14 16 -30 4 -17 11 -30 16 -30 5 0 9 -9 9 -20 0 -11 13 -45 29 -75 16
-30 32 -68 36 -85 4 -16 10 -30 15 -30 5 0 11 -14 15 -30 4 -17 10 -30 15 -30
5 0 11 -14 15 -30 4 -16 10 -30 15 -30 5 0 11 -14 15 -30 4 -17 10 -30 15 -30
5 0 11 -14 15 -30 4 -16 10 -30 15 -30 5 0 11 -14 15 -30 4 -17 10 -30 15 -30
5 0 11 -14 15 -30 4 -16 10 -30 15 -30 4 0 11 -12 15 -27 3 -15 10 -30 13 -33
10 -8 29 -38 62 -105 34 -66 52 -97 61 -105 3 -3 9 -12 13 -20 4 -8 18 -33 32
-55 13 -22 27 -48 30 -57 4 -10 10 -18 15 -18 5 0 9 -5 9 -10 0 -12 41 -73 53
-78 4 -2 7 -8 7 -13 0 -11 42 -72 53 -77 4 -2 7 -8 7 -13 0 -11 42 -72 53 -77
4 -2 7 -8 7 -13 0 -11 42 -72 53 -77 4 -2 7 -9 7 -16 0 -7 9 -21 20 -31 11
-10 20 -24 20 -32 0 -7 7 -16 15 -19 8 -4 15 -11 15 -16 0 -6 14 -27 30 -47
48 -56 50 -60 50 -69 0 -5 9 -17 20 -27 11 -10 20 -24 20 -32 0 -7 7 -16 15
-19 8 -4 15 -11 15 -16 0 -9 27 -45 75 -101 8 -9 15 -20 15 -23 0 -6 33 -49
75 -96 8 -10 15 -22 15 -26 0 -5 13 -21 30 -37 16 -16 30 -34 30 -40 0 -6 13
-22 30 -35 16 -14 29 -30 30 -35 0 -6 20 -31 45 -55 25 -24 45 -48 45 -54 0
-5 20 -29 45 -53 25 -23 45 -46 45 -51 0 -4 31 -39 70 -77 38 -38 68 -71 65
-73 -5 -6 351 -362 362 -362 5 0 38 -29 73 -65 35 -36 68 -65 72 -65 5 0 28
-20 51 -45 24 -25 48 -45 53 -45 6 0 30 -20 54 -45 24 -25 49 -45 55 -45 6 0
22 -13 35 -30 14 -16 30 -29 36 -30 5 0 23 -13 39 -30 16 -17 33 -30 39 -30 5
0 16 -7 25 -15 38 -35 89 -75 96 -75 5 0 15 -7 24 -15 44 -40 90 -75 100 -75
6 0 14 -7 17 -15 4 -8 12 -15 19 -15 6 0 20 -9 30 -20 10 -11 22 -20 27 -20 9
0 13 -2 69 -50 20 -16 42 -30 48 -30 6 0 14 -7 17 -15 4 -8 12 -15 19 -15 6 0
20 -9 30 -20 10 -11 24 -20 31 -20 7 0 14 -3 16 -7 5 -11 66 -53 77 -53 5 0
11 -3 13 -7 5 -11 66 -53 77 -53 5 0 11 -3 13 -7 5 -11 66 -53 77 -53 5 0 11
-3 13 -7 5 -12 66 -53 78 -53 5 0 10 -4 10 -9 0 -5 8 -11 18 -15 9 -3 35 -17
57 -30 22 -14 47 -28 55 -32 8 -4 17 -10 20 -13 8 -9 39 -27 105 -61 67 -33
97 -52 105 -62 3 -3 18 -10 33 -13 15 -4 27 -11 27 -15 0 -5 14 -11 30 -15 17
-4 30 -10 30 -15 0 -5 13 -11 30 -15 16 -4 30 -10 30 -15 0 -5 14 -11 30 -15
17 -4 30 -10 30 -15 0 -5 14 -11 30 -15 17 -4 30 -10 30 -15 0 -5 14 -11 30
-15 17 -4 30 -10 30 -15 0 -5 14 -11 30 -15 17 -4 30 -10 30 -15 0 -5 14 -11
30 -15 17 -4 55 -20 85 -36 30 -16 64 -29 75 -29 11 0 20 -4 20 -9 0 -5 14
-12 30 -16 17 -4 30 -11 30 -16 0 -5 8 -9 18 -9 9 0 29 -6 44 -14 15 -8 40
-17 57 -21 17 -4 31 -10 31 -15 0 -5 20 -12 45 -16 25 -3 45 -10 45 -15 0 -4
16 -11 35 -15 19 -3 37 -10 40 -14 3 -5 23 -11 45 -15 22 -4 42 -10 45 -15 3
-5 23 -11 45 -15 22 -4 42 -10 45 -15 3 -5 23 -11 45 -15 22 -4 42 -10 45 -15
3 -5 23 -11 45 -15 22 -4 42 -10 45 -15 3 -4 28 -11 55 -15 28 -4 50 -10 50
-15 0 -4 22 -10 50 -14 27 -4 52 -11 55 -16 3 -5 30 -12 60 -15 31 -4 57 -11
60 -15 3 -5 29 -11 58 -15 28 -4 57 -11 62 -15 6 -4 36 -11 67 -14 32 -4 60
-11 63 -16 2 -4 29 -11 60 -15 30 -3 57 -10 60 -15 3 -5 34 -12 70 -15 36 -4
68 -11 70 -15 3 -5 30 -12 60 -15 31 -4 58 -11 60 -15 3 -5 31 -12 63 -16 31
-3 62 -10 67 -14 6 -5 40 -11 78 -15 37 -4 70 -11 72 -16 3 -4 41 -11 85 -15
44 -3 83 -10 85 -14 3 -5 44 -11 93 -15 48 -4 92 -11 97 -15 6 -5 60 -12 120
-15 61 -4 115 -11 120 -16 6 -4 88 -11 183 -15 95 -4 175 -11 178 -15 7 -12
831 -12 838 0 3 4 83 11 177 15 94 4 179 11 188 16 9 5 64 12 124 16 59 3 107
9 107 14 0 4 41 10 92 14 51 4 97 11 103 15 5 5 45 12 88 16 42 4 77 10 77 15
0 4 34 11 75 15 41 4 75 10 75 14 0 5 28 11 61 15 34 3 67 10 73 15 6 5 35 12
63 16 29 4 55 10 58 15 3 4 34 11 70 15 36 3 65 10 65 15 0 4 27 11 60 15 33
4 60 11 60 15 0 4 28 11 63 15 34 4 67 11 72 15 6 4 34 11 62 15 29 4 55 10
58 15 3 4 29 11 60 15 30 3 57 10 60 15 3 5 28 12 55 16 28 4 50 10 50 15 0 4
21 11 48 15 26 3 52 10 57 14 6 4 26 11 45 15 19 4 40 11 45 15 6 4 26 11 45
15 19 4 40 11 45 15 6 4 26 11 45 15 19 4 40 11 45 15 6 4 26 11 45 15 19 4
40 11 45 15 6 4 25 11 43 15 17 3 32 10 32 15 0 5 20 12 45 16 25 3 45 10 45
14 0 5 15 12 33 15 17 4 41 14 52 21 11 8 30 14 42 14 13 0 23 4 23 9 0 5 14
12 30 16 17 4 30 11 30 16 0 5 8 9 18 9 9 0 43 13 74 29 32 16 71 32 88 36 16
4 30 10 30 15 0 5 14 11 30 15 17 4 30 10 30 15 0 5 14 11 30 15 17 4 30 10
30 15 0 5 14 11 30 15 17 4 30 10 30 15 0 5 14 11 30 15 17 4 30 10 30 15 0 5
14 11 30 15 17 4 30 10 30 15 0 5 14 11 30 15 17 4 30 10 30 15 0 4 12 11 27
15 15 3 30 10 33 13 8 10 38 29 105 62 66 34 97 52 105 61 3 3 12 9 20 13 8 4
33 18 55 32 22 13 48 27 58 30 9 4 17 10 17 15 0 5 5 9 10 9 12 0 73 41 78 53
2 4 8 7 13 7 11 0 72 42 77 53 2 4 8 7 13 7 11 0 72 42 77 53 2 4 8 7 13 7 11
0 72 42 77 53 2 4 8 7 14 7 5 0 29 16 52 35 24 19 46 35 50 35 4 0 27 16 50
35 24 19 46 35 50 35 4 0 29 18 55 40 26 22 51 40 55 40 9 0 99 72 104 83 2 4
9 7 16 7 7 0 21 9 31 20 10 11 22 20 27 20 5 0 19 11 32 25 13 14 27 25 31 25
7 0 57 40 117 95 15 14 30 25 34 25 7 0 68 54 161 141 23 21 45 39 50 39 5 0
38 29 73 65 35 36 68 65 72 65 14 0 498 500 498 515 0 5 20 28 45 52 25 23 45
46 45 51 0 4 20 28 45 52 25 24 45 49 45 55 0 6 13 22 30 35 16 14 29 30 30
36 0 5 14 23 30 39 17 16 30 33 30 39 0 5 7 16 15 25 35 38 75 89 75 96 0 5 7
15 15 24 40 44 75 90 75 100 0 6 7 14 15 17 8 4 15 12 15 19 0 6 9 20 20 30
11 10 20 22 20 27 0 9 1 11 48 68 16 19 31 43 35 53 4 9 11 17 17 17 5 0 10 6
10 13 0 8 9 22 20 32 11 10 20 24 20 31 0 7 3 14 8 16 10 5 52 66 52 77 0 5 3
11 8 13 11 5 52 66 52 78 0 5 5 10 10 10 6 0 15 10 20 23 13 29 33 60 43 68
11 8 34 47 43 72 3 9 10 17 14 17 4 0 11 8 14 18 4 9 18 35 31 57 14 22 28 47
32 55 3 8 9 17 12 20 10 8 29 42 61 105 35 69 52 98 62 105 3 3 10 18 13 33 4
15 11 27 15 27 5 0 11 13 15 30 4 16 10 30 15 30 5 0 11 13 15 30 4 16 10 30
15 30 5 0 11 13 15 30 4 16 10 30 15 30 4 0 11 12 15 27 3 15 10 30 13 33 10
7 52 95 52 109 0 6 4 11 9 11 5 0 12 12 15 28 4 15 20 54 35 87 72 151 81 171
81 179 0 8 18 52 45 111 8 17 17 43 21 59 4 16 13 41 20 55 8 14 14 34 14 43
0 9 4 19 9 22 5 4 12 24 16 46 4 22 10 42 15 45 5 3 11 23 15 45 4 22 10 42
15 45 5 3 11 23 15 45 4 22 10 42 15 45 4 3 11 22 15 42 4 21 10 43 15 48 4 6
11 28 15 50 4 22 10 45 15 50 4 6 11 31 14 58 4 26 11 47 16 47 4 0 11 27 15
60 4 33 11 60 15 60 4 0 11 27 15 60 4 33 10 60 15 60 4 0 10 28 14 61 3 34
10 67 15 73 5 6 12 35 16 63 4 29 11 55 15 58 5 3 12 34 15 70 4 36 11 65 15
65 5 0 11 27 15 60 4 33 11 60 15 60 5 0 12 29 15 65 4 36 11 67 15 70 4 3 11
36 15 75 4 39 11 72 15 75 5 3 12 41 16 85 3 44 10 80 14 80 4 0 11 42 15 93
4 50 11 97 15 102 5 6 12 60 15 120 4 61 11 115 16 120 4 6 11 88 15 183 4 95
11 172 16 172 11 0 11 837 -1 844 -4 3 -11 83 -15 178 -4 95 -11 177 -15 183
-5 5 -12 59 -16 120 -3 60 -10 114 -15 120 -4 5 -11 52 -15 103 -4 50 -11 92
-15 92 -4 0 -11 36 -14 80 -4 44 -11 82 -15 85 -5 2 -12 35 -16 72 -4 38 -10
73 -15 78 -4 6 -11 36 -14 67 -4 32 -11 60 -16 63 -4 2 -11 29 -15 60 -3 30
-10 57 -15 60 -4 2 -11 34 -15 70 -3 36 -10 67 -15 70 -5 3 -12 30 -15 60 -4
31 -11 58 -15 60 -5 3 -12 31 -16 63 -3 31 -10 62 -14 67 -4 6 -11 34 -15 62
-4 29 -10 55 -15 58 -4 3 -11 29 -15 60 -3 30 -10 57 -15 60 -5 3 -12 27 -16
53 -3 26 -10 52 -14 57 -5 6 -11 28 -15 50 -4 22 -11 45 -15 50 -5 6 -11 27
-15 48 -4 20 -11 39 -15 42 -5 3 -11 23 -15 45 -4 22 -10 42 -15 45 -5 3 -11
23 -15 45 -4 22 -10 42 -15 45 -5 3 -11 23 -15 45 -4 22 -11 42 -16 46 -5 3
-9 13 -9 22 0 9 -6 29 -14 43 -7 14 -16 39 -20 55 -4 16 -13 43 -21 59 -27 59
-45 103 -45 111 0 8 -9 29 -76 169 -16 33 -29 65 -29 70 -1 19 -246 503 -260
515 -8 7 -12 16 -9 21 3 5 1 9 -4 9 -9 0 -18 20 -20 44 0 5 -4 12 -9 15 -11 8
-30 40 -44 71 -6 14 -20 35 -31 48 -12 12 -17 22 -12 22 5 0 5 4 -1 8 -13 9
-32 39 -46 72 -6 14 -20 35 -31 48 -12 12 -17 22 -12 22 5 0 5 4 -1 8 -15 11
-55 70 -55 81 0 5 -3 11 -7 13 -11 5 -53 66 -53 77 0 5 -3 11 -7 13 -9 4 -53
65 -53 73 0 6 -2 9 -48 65 -16 19 -31 43 -35 53 -4 9 -11 17 -17 17 -5 0 -10
6 -10 13 0 8 -9 22 -20 32 -11 10 -20 22 -20 27 0 9 -2 13 -50 69 -16 20 -30
42 -30 48 0 6 -7 14 -15 17 -8 4 -15 12 -15 19 0 6 -9 20 -20 30 -11 10 -20
23 -20 28 0 5 -11 20 -25 33 -14 13 -25 27 -25 32 0 5 -9 17 -20 27 -11 10
-20 23 -20 28 0 5 -11 20 -25 33 -14 13 -25 27 -25 32 0 4 -13 21 -30 37 -16
16 -30 34 -30 40 0 6 -13 22 -30 35 -16 14 -29 30 -30 35 0 6 -20 31 -45 55
-25 24 -45 48 -45 54 0 5 -20 29 -45 53 -25 23 -45 46 -45 51 0 4 -29 37 -65
72 -36 35 -65 68 -65 73 0 5 -81 89 -179 188 -99 98 -183 179 -188 179 -5 0
-38 29 -73 65 -35 36 -68 65 -72 65 -5 0 -28 20 -51 45 -24 25 -48 45 -53 45
-6 0 -30 20 -54 45 -24 25 -49 45 -55 45 -5 1 -21 14 -35 30 -13 17 -29 30
-35 30 -6 0 -24 14 -40 30 -16 17 -33 30 -37 30 -5 0 -19 11 -32 25 -13 14
-28 25 -33 25 -5 0 -18 9 -28 20 -10 11 -22 20 -27 20 -5 0 -19 11 -32 25 -13
14 -28 25 -33 25 -5 0 -18 9 -28 20 -10 11 -24 20 -32 20 -7 0 -13 5 -13 10 0
6 -8 13 -17 17 -10 4 -34 19 -53 35 -57 47 -59 48 -68 48 -5 0 -17 9 -27 20
-10 11 -24 20 -32 20 -7 0 -13 5 -13 10 0 6 -8 13 -17 17 -10 4 -34 19 -53 35
-55 45 -59 48 -64 48 -4 0 -49 29 -276 179 -63 42 -86 56 -120 73 -14 7 -38
21 -55 33 -47 32 -66 43 -125 72 -30 15 -68 37 -85 49 -16 13 -42 26 -57 29
-16 4 -28 11 -28 15 0 4 -12 11 -27 15 -15 3 -30 10 -33 13 -8 11 -275 142
-288 142 -7 0 -12 4 -12 9 0 5 -12 12 -27 15 -16 4 -55 20 -88 35 -151 72
-171 81 -179 81 -8 0 -52 18 -111 45 -16 8 -43 17 -59 21 -16 4 -41 13 -55 20
-14 8 -34 14 -43 14 -9 0 -19 4 -22 9 -4 5 -24 12 -46 16 -22 4 -42 10 -45 15
-3 5 -23 11 -45 15 -22 4 -42 10 -45 15 -3 5 -23 11 -45 15 -22 4 -42 10 -45
15 -3 4 -22 11 -42 15 -21 4 -42 10 -48 15 -5 4 -28 11 -50 15 -22 4 -44 10
-50 15 -5 4 -31 11 -57 14 -26 4 -50 11 -53 16 -3 5 -30 12 -60 15 -31 4 -57
11 -60 15 -3 5 -29 11 -58 15 -28 4 -56 11 -62 15 -5 4 -36 11 -67 14 -32 4
-60 11 -63 16 -2 4 -29 11 -60 15 -30 3 -57 10 -60 15 -3 5 -34 12 -70 15 -36
4 -68 11 -70 15 -3 5 -30 12 -60 15 -31 4 -58 11 -60 15 -3 5 -31 12 -63 16
-31 3 -61 10 -67 14 -5 5 -40 11 -78 15 -37 4 -70 11 -72 16 -3 4 -41 11 -85
15 -44 3 -83 10 -85 14 -3 5 -44 11 -93 15 -48 4 -92 11 -97 15 -6 5 -60 12
-120 15 -61 4 -115 11 -120 16 -6 4 -88 11 -183 15 -95 4 -175 11 -178 15 -7
12 -844 12 -844 1z m1160 -1252 c336 -35 689 -97 995 -174 33 -8 83 -20 110
-26 28 -6 59 -15 70 -20 19 -8 40 -14 148 -41 23 -6 49 -14 57 -18 9 -5 31
-12 50 -16 19 -4 41 -11 50 -15 8 -5 47 -18 85 -30 39 -12 79 -25 90 -30 11
-4 49 -18 85 -31 36 -12 69 -26 74 -31 6 -4 17 -8 25 -8 9 0 27 -6 41 -13 14
-7 48 -21 75 -31 28 -10 64 -24 80 -32 17 -7 53 -22 80 -34 129 -56 184 -82
380 -181 256 -129 270 -137 470 -257 1015 -608 1871 -1463 2482 -2477 114
-189 133 -223 262 -480 99 -196 126 -252 181 -380 11 -27 25 -59 30 -70 43
-95 144 -367 192 -515 22 -69 44 -134 48 -145 5 -11 13 -38 18 -60 6 -22 18
-65 27 -95 260 -874 339 -1969 211 -2915 -43 -314 -119 -700 -181 -915 -9 -30
-21 -73 -26 -95 -5 -22 -13 -51 -18 -65 -5 -14 -26 -79 -46 -145 -20 -66 -40
-129 -45 -140 -5 -11 -25 -69 -46 -130 -20 -60 -40 -114 -44 -120 -3 -5 -15
-32 -24 -60 -63 -173 -280 -642 -388 -835 -81 -145 -110 -194 -161 -280 -309
-510 -671 -965 -1113 -1400 -115 -113 -229 -223 -254 -245 -195 -171 -342
-290 -540 -437 -213 -157 -544 -372 -705 -458 -16 -9 -73 -40 -125 -70 -78
-43 -408 -207 -485 -240 -11 -5 -51 -23 -88 -39 -38 -17 -71 -31 -74 -31 -3 0
-19 -6 -36 -14 -95 -43 -127 -56 -139 -56 -8 0 -18 -4 -24 -8 -5 -5 -38 -19
-74 -31 -36 -13 -74 -27 -85 -31 -26 -11 -278 -95 -330 -110 -22 -6 -62 -18
-90 -26 -62 -19 -142 -41 -220 -60 -33 -8 -87 -22 -120 -30 -297 -75 -696
-138 -1115 -176 -169 -15 -938 -15 -1110 0 -486 44 -800 96 -1240 207 -30 7
-75 18 -100 24 -25 6 -56 16 -70 20 -14 5 -59 19 -100 31 -173 51 -487 159
-605 210 -22 9 -56 23 -75 30 -44 17 -120 50 -310 137 -192 88 -469 236 -670
358 -225 136 -621 413 -766 534 -17 14 -51 42 -75 61 -97 78 -269 230 -400
354 -679 643 -1242 1437 -1624 2291 -10 22 -28 62 -41 89 -13 28 -24 54 -24
59 0 5 -6 23 -14 40 -43 95 -56 127 -56 139 0 8 -4 18 -8 24 -5 5 -19 38 -31
74 -13 36 -27 74 -31 85 -14 32 -96 283 -120 365 -12 41 -26 86 -31 100 -4 14
-13 45 -19 70 -6 25 -18 71 -26 103 -8 31 -21 85 -30 120 -59 236 -113 549
-151 872 -26 220 -26 1377 0 1595 40 337 83 586 151 875 32 139 68 271 77 287
5 10 9 24 9 31 0 14 36 138 50 172 4 11 24 72 44 135 20 63 41 123 46 132 6
10 10 23 10 30 1 7 9 31 20 53 11 22 19 48 20 57 0 9 4 19 9 23 5 3 13 20 17
37 3 18 10 39 15 48 4 8 15 31 23 50 16 39 52 124 66 155 67 157 299 621 329
660 5 5 20 31 35 58 66 119 79 142 85 147 3 3 11 14 18 25 102 170 169 270
322 480 218 299 400 512 681 798 430 439 881 799 1375 1100 11 7 39 24 62 40
23 15 44 27 46 27 3 0 38 19 79 43 117 70 173 100 343 185 137 69 204 101 320
152 11 5 51 23 88 39 38 17 71 31 74 31 3 0 19 7 36 15 18 8 75 30 127 50 52
19 104 40 115 45 11 5 92 32 180 61 88 28 169 55 180 59 11 5 36 12 55 16 19
3 41 10 50 15 8 4 35 13 60 19 25 6 70 18 100 26 118 32 385 92 535 120 172
32 408 66 580 84 102 10 1375 10 1475 0z"/>
<path d="M17855 17780 c-69 -20 -157 -64 -200 -100 -37 -30 -3518 -3501 -3523
-3514 -3 -4 -358 344 -791 775 -433 431 -807 798 -831 815 -25 17 -79 44 -120
60 -70 27 -85 29 -215 29 -143 0 -163 -4 -275 -53 -31 -13 -138 -89 -165 -117
-25 -25 -85 -115 -110 -164 -41 -81 -55 -151 -55 -266 0 -145 25 -230 105
-355 24 -38 1991 -2014 2068 -2078 91 -75 256 -131 386 -132 130 0 240 36 356
117 62 43 4025 4000 4050 4044 81 139 105 220 105 359 0 189 -46 300 -178 430
-90 88 -151 125 -251 154 -78 23 -276 20 -356 -4z"/>
</g>
</svg>
